<?xml version="1.0" standalone="no"?>
<!DOCTYPE svg PUBLIC "-//W3C//DTD SVG 20010904//EN"
 "http://www.w3.org/TR/2001/REC-SVG-20010904/DTD/svg10.dtd">
<svg version="1.0" xmlns="http://www.w3.org/2000/svg"
 width="700.000000pt" height="700.000000pt" viewBox="0 0 700.000000 700.000000"
 preserveAspectRatio="xMidYMid meet">
<metadata>
Created by potrace 1.11, written by Peter Selinger 2001-2013
</metadata>
<g transform="translate(0.000000,700.000000) scale(0.100000,-0.100000)"
fill="#000000" stroke="none">
<path d="M3220 6928 c-342 -32 -711 -126 -1035 -265 -913 -390 -1627 -1171
-1934 -2116 -118 -365 -165 -669 -165 -1077 0 -399 47 -703 165 -1067 222
-685 654 -1281 1242 -1717 283 -211 605 -379 942 -493 113 -38 343 -103 367
-103 4 0 9 712 10 1583 l3 1582 28 57 c32 64 80 111 146 142 42 19 68 21 296
24 152 2 255 8 263 14 9 8 12 366 12 1729 l0 1719 -122 -1 c-68 -1 -166 -6
-218 -11z m-198 -1997 c152 -52 260 -180 289 -340 33 -186 -64 -372 -238 -458
-65 -32 -86 -37 -162 -41 -191 -9 -339 78 -420 248 -34 71 -36 81 -36 175 0
121 18 179 81 265 49 66 127 124 207 151 72 25 206 25 279 0z"/>
<path d="M3978 5089 l-3 -1824 -22 -41 c-34 -63 -66 -97 -125 -129 l-53 -30
-263 -3 -263 -3 -9 -25 c-6 -16 -10 -596 -10 -1514 l0 -1490 28 -7 c56 -15
532 -7 680 11 817 98 1546 457 2104 1035 487 503 788 1090 925 1801 l28 145 0
460 c0 437 -1 466 -23 585 -115 625 -367 1167 -762 1639 -504 603 -1198 1017
-1961 1172 -80 16 -174 32 -207 35 l-62 7 -2 -1824z m64 -2660 c200 -67 325
-273 291 -475 -60 -350 -482 -490 -731 -242 -196 195 -166 511 64 668 100 70
256 90 376 49z m1070 -21 c170 -85 270 -274 238 -455 -45 -261 -300 -422 -552
-349 -75 22 -174 90 -220 151 -147 194 -103 483 93 617 90 62 148 79 265 75
93 -2 106 -5 176 -39z m1011 5 c88 -42 163 -117 208 -208 33 -67 34 -74 34
-185 0 -109 -2 -119 -32 -183 -105 -222 -366 -311 -589 -202 -260 127 -317
483 -111 689 95 95 178 127 322 123 88 -2 108 -6 168 -34z"/>
</g>
</svg>
