<?xml version="1.0" encoding="UTF-8"?>
<svg width="186px" height="158px" viewBox="0 0 186 158" version="1.1" xmlns="http://www.w3.org/2000/svg" xmlns:xlink="http://www.w3.org/1999/xlink">
    <!-- Generator: Sketch 52.4 (67378) - http://www.bohemiancoding.com/sketch -->
    <title>Group 4</title>
    <desc>Created with Sketch.</desc>
    <g id="ошибка" stroke="none" stroke-width="1" fill="none" fill-rule="evenodd">
        <g id="Group-4" transform="translate(1.000000, 1.000000)">
            <g id="Group-2" transform="translate(75.000000, 49.009026)" fill-rule="nonzero" stroke="#333333">
                <polygon id="Path-2-Copy" stroke-width="2" fill="#FFFFFF" transform="translate(50.020705, 51.496228) rotate(10.000000) translate(-50.020705, -51.496228) " points="83.7816564 19.3329549 92.7845768 70.2348305 16.2597531 83.659501 7.25683271 33.5966673"></polygon>
                <polygon id="Path-Copy" stroke-width="2" fill="#FFFFFF" transform="translate(49.415344, 82.311039) rotate(11.000000) translate(-49.415344, -82.311039) " points="5.70459275 85.996868 7.19529398 94.387287 9.46924277 95.663348 91.9340204 79.843894 93.1260944 77.8060589 91.3777015 70.3347524 89.7253976 68.9587304 7.19529398 84.0462653"></polygon>
                <polygon id="Path-Copy-2" stroke-width="2" fill="#FFFFFF" transform="translate(49.570112, 21.985029) rotate(11.000000) translate(-49.570112, -21.985029) " points="5.35936079 25.6708582 6.86711391 34.0612773 9.16707402 35.3373382 92.5751525 19.5178842 93.7808624 17.4800491 92.0124699 10.0087427 90.3412656 8.63272067 6.86711391 23.7202556"></polygon>
                <path d="M105.995761,51.1237463 C103.459048,59.544029 99.2096628,64.7314924 93.2476047,66.6861366 C87.2855466,68.6407807 80.8406196,65.4455342 73.9128236,57.100397" id="Path-4" stroke-width="2" transform="translate(89.954292, 59.183149) rotate(-97.000000) translate(-89.954292, -59.183149) "></path>
                <path d="M40.9740556,67.9298903 C44.7030802,67.931422 47.5833162,68.3547488 47.5823918,66.1172391 C47.5814673,63.8797294 45.51821,63.2361393 40.8100786,63.2342054 C36.1019473,63.2322715 34.0774745,63.8741826 34.078399,66.1116923 C34.0793235,68.349202 37.2450309,67.9283586 40.9740556,67.9298903 Z" id="Oval" stroke-width="2" fill="#333333" transform="translate(40.830395, 65.598470) rotate(2.000000) translate(-40.830395, -65.598470) "></path>
                <path d="M38.4875981,87.8658244 L39.0502806,107.443469" id="Path-7" stroke-width="2" transform="translate(38.768939, 97.654647) rotate(10.000000) translate(-38.768939, -97.654647) "></path>
                <path d="M54.2883809,88.5436717 L62.6443686,105.958251" id="Path-8" stroke-width="2" transform="translate(58.788381, 97.543672) rotate(10.000000) translate(-58.788381, -97.543672) "></path>
                <ellipse id="Oval" stroke-width="1.68804758" fill="#00B956" transform="translate(13.256802, 21.268291) rotate(11.000000) translate(-13.256802, -21.268291) " cx="13.2568021" cy="21.2682905" rx="2.25073011" ry="2.23744508"></ellipse>
                <ellipse id="Oval-Copy-2" stroke-width="1.68804758" transform="translate(21.187621, 21.670224) rotate(11.000000) translate(-21.187621, -21.670224) " cx="21.1876213" cy="21.6702243" rx="2.25073011" ry="2.23744508"></ellipse>
                <ellipse id="Oval-Copy-3" stroke-width="1.68804758" transform="translate(29.118440, 22.072158) rotate(11.000000) translate(-29.118440, -22.072158) " cx="29.1184405" cy="22.072158" rx="2.25073011" ry="2.23744508"></ellipse>
                <path d="M28.5013154,53.3410213 C30.3658813,53.3410213 32.4088363,53.4901536 32.4088363,51.6365934 C32.4088363,49.7830332 29.6395784,48.3919551 27.7750126,48.3919551 C25.9104467,48.3919551 23.1982701,49.3762513 23.1982701,51.2298115 C23.1982701,53.0833717 26.6367496,53.3410213 28.5013154,53.3410213 Z" id="Oval-Copy" stroke-width="2" transform="translate(27.803553, 50.867921) rotate(-5.000000) translate(-27.803553, -50.867921) "></path>
                <path d="M52.8739455,52.0987018 C54.333636,52.0987018 55.6331751,52.6918088 55.6331751,51.2125592 C55.6331751,49.7333095 53.9609341,49.1528904 52.1392181,49.022962 C50.317502,48.8930335 47.9801278,49.1874787 47.9801278,50.6667284 C47.9801278,52.145978 51.4142551,52.0987018 52.8739455,52.0987018 Z" id="Oval-Copy-4" stroke-width="2" fill="#FFFFFF" transform="translate(51.806651, 50.605790) rotate(-5.000000) translate(-51.806651, -50.605790) "></path>
                <path d="M23.0997921,42.0028847 C24.5001137,42.7241111 25.9050915,43.25613 27.3147254,43.5989412 C28.7243593,43.9417525 30.6050489,44.064161 32.956794,43.966167" id="Path-3-Copy" stroke-width="2" transform="translate(28.028293, 43.000864) scale(-1, 1) rotate(-12.000000) translate(-28.028293, -43.000864) "></path>
                <path d="M47.0997921,42.0028847 C48.5001137,42.7241111 49.9050915,43.25613 51.3147254,43.5989412 C52.7243593,43.9417525 54.6050489,44.064161 56.956794,43.966167" id="Path-3-Copy-2" stroke-width="2" transform="translate(52.028293, 43.000864) scale(-1, 1) rotate(-12.000000) translate(-52.028293, -43.000864) "></path>
                <path d="M11,63 C2.21648055,57.785011 -1.11685278,53.4516777 1,50 C3.11685278,46.5483223 10.7835194,43.1378406 24,39.7685548" id="Path-19" stroke-width="2"></path>
            </g>
            <g id="Group-34-Copy-9" transform="translate(162.000000, 9.000000)" stroke="#333333" stroke-linecap="square" stroke-width="1.6">
                <path d="M0.06,0.06 L2.94249892,2.94249892" id="Line-5"></path>
                <path d="M0.06,0.06 L2.94249892,2.94249892" id="Line-5-Copy" transform="translate(1.500000, 1.500000) scale(-1, 1) translate(-1.500000, -1.500000) "></path>
            </g>
            <g id="Group-34-Copy-11" transform="translate(180.000000, 61.000000)" stroke="#333333" stroke-linecap="square" stroke-width="1.6">
                <path d="M0.06,0.06 L2.94249892,2.94249892" id="Line-5"></path>
                <path d="M0.06,0.06 L2.94249892,2.94249892" id="Line-5-Copy" transform="translate(1.500000, 1.500000) scale(-1, 1) translate(-1.500000, -1.500000) "></path>
            </g>
            <polygon id="Path-18-Copy-2" stroke="#333333" stroke-width="1.7" points="133 39.1016711 137.027261 39.1016711 136.182725 36.0090259 134.017131 36.0090259"></polygon>
            <path d="M62.4674127,73.1662885 L56.4674127,58.1662885 C66.3162516,60.5073713 73.6495849,58.174038 78.4674127,51.1662885 C83.2852405,44.158539 83.2852405,35.8252057 78.4674127,26.1662885 C81.1473739,15.6279297 78.8340405,7.961263 71.5274127,3.16628849 C64.2207849,-1.62868601 55.8674516,-0.962019346 46.4674127,5.16628849 C38.8800367,2.83206117 33.21337,1.83206117 29.4674127,2.16628849 C14.1072712,3.53677369 2.79160895,12.9549208 0.467412703,26.1662885 C-1.85492661,39.3671009 4.47636461,50.8625794 19.4674127,56.1662885 C23.1342717,57.463593 29.8009384,58.1302596 39.4674127,58.1662885 L62.4674127,73.1662885 Z" id="Path-20" stroke="#333333" stroke-width="2" fill-rule="nonzero"></path>
            <text id="?" font-family="MegaFonGraphikLC-Regular, MegaFon Graphik LC" font-size="33" font-weight="normal" fill="#333333">
                <tspan x="35" y="43.0090259">?</tspan>
            </text>
            <path d="M43,8.0090259 C53.3997579,-0.603065064 62.7330912,-2.26973173 71,3.0090259 C79.2669088,8.28778353 81.253556,17.2877835 76.9599417,30.0090259" id="Path-21" stroke="#333333" stroke-width="2" fill-rule="nonzero"></path>
        </g>
    </g>
</svg>