<?xml version="1.0" encoding="UTF-8"?>
<svg width="137px" height="76px" viewBox="0 0 137 76" version="1.1" xmlns="http://www.w3.org/2000/svg" xmlns:xlink="http://www.w3.org/1999/xlink">
    <!-- Generator: Sketch 52.4 (67378) - http://www.bohemiancoding.com/sketch -->
    <title>Group 5</title>
    <desc>Created with Sketch.</desc>
    <g id="ошибка" stroke="none" stroke-width="1" fill="none" fill-rule="evenodd">
        <g id="Group-5" transform="translate(0.000000, 1.000000)">
            <ellipse id="Path" fill-opacity="0.412647192" fill="#731982" cx="14.2746914" cy="20.2045455" rx="14.2746914" ry="14.2045455"></ellipse>
            <g id="Group-15" transform="translate(1.549383, 0.000000)">
                <path d="M74,43.6861968 C75.0480279,41.3086716 76.6097563,39.8358181 78.6851852,39.2676362 C80.7606141,38.6994544 83.3497434,39.0359443 86.4525732,40.2771059" id="Path-3" stroke="#333333" stroke-width="2.05555556" transform="translate(80.226287, 41.343098) rotate(10.000000) translate(-80.226287, -41.343098) "></path>
                <circle id="Oval" fill="#333333" cx="73" cy="24" r="2"></circle>
                <circle id="Oval-Copy" fill="#333333" cx="85" cy="24" r="2"></circle>
                <path d="M70.4259259,60 L72.4814815,73.6363636" id="Path-9" stroke="#333333" stroke-width="2.05555556"></path>
                <path d="M73.8518519,73.6363636 L67,73.6363636" id="Path-11" stroke="#333333" stroke-width="2.05555556"></path>
                <g id="Group-4" transform="translate(88.000000, 67.500000) scale(-1, 1) translate(-88.000000, -67.500000) translate(84.000000, 60.000000)" stroke="#333333" stroke-width="2.05555556">
                    <path d="M4.0462963,0.340909091 L6.44444444,13.6363636" id="Path-10"></path>
                    <path d="M7.81481481,13.6363636 L0.962962963,13.6363636" id="Path-11-Copy"></path>
                </g>
                <path d="M34,12 C35.6979842,21.6458183 36.6535397,29.3124849 36.8666667,35 C37.0797936,40.6875151 36.7612751,49.3541817 35.9111111,61 L37.8222222,62 C47.2700652,59.3333333 53.9589541,58 57.8888889,58 C64.286691,58 70.6570614,59.6666667 77,63 C84.8567901,61 91.2271605,60 96.1111111,60 C99.1821053,60 105.552476,61 115.222222,63 L117.133333,62 C116.806064,52.4890224 116.806064,44.8223557 117.133333,39 C117.460603,33.1776443 118.749492,24.1776443 121,12" id="Path-14" stroke="#333333" stroke-width="2"></path>
                <path d="M40.5594714,2.97147385 C42.0058877,17.3664989 42.7852092,26.0426742 42.8974359,29 C43.1025736,34.4056567 43.1025736,42.4056567 42.8974359,53 L43.8461538,54 C50.8779912,51.4989489 56.8865382,50.8322822 61.8717949,52 C66.8570515,53.1677178 72.2331199,56.5010511 78,62" id="Path-15" stroke="#333333" stroke-width="2"></path>
                <path d="M114.097561,10.1394102 C107.121951,4.15549598 100.146341,0.831099196 93.1707317,0.166219839 C86.195122,-0.498659517 80.804878,0.831099196 77,4.15549598 C78.902439,13.463807 80.1707317,21.7747989 80.804878,29.0884718 C81.4390244,36.4021448 81.4390244,44.3806971 80.804878,53.0241287 L81.7560976,54.0214477 C88.8064763,51.5271018 94.8308666,50.8622225 99.8292683,52.0268097 C104.82767,53.1913968 110.217914,56.5157936 116,62" id="Path-15-Copy" stroke="#333333" stroke-width="2" transform="translate(96.500000, 31.000000) scale(-1, 1) translate(-96.500000, -31.000000) "></path>
                <path d="M19,38 L23,49" id="Path-16" stroke="#333333" stroke-width="2"></path>
                <circle id="Oval-2" stroke="#333333" stroke-width="2" cx="14" cy="24" r="14"></circle>
                <g id="Group-2" transform="translate(19.000000, 41.000000)" stroke="#333333" stroke-width="2">
                    <path d="M18,0 C11.3333333,1.33333333 6.66666667,4 4,8" id="Path-17"></path>
                    <path d="M0,8 L5,8" id="Path-18"></path>
                </g>
                <g id="Group-2-Copy" transform="translate(126.000000, 45.500000) scale(-1, 1) translate(-126.000000, -45.500000) translate(117.000000, 41.000000)" stroke="#333333" stroke-width="2">
                    <path d="M18,0 C11.3333333,1.33333333 6.66666667,4 4,8" id="Path-17"></path>
                    <path d="M0,8 L5,8" id="Path-18"></path>
                </g>
                <path d="M19,31 C21,29.3529412 22,27.0196078 22,24 C22,20.9803922 21,18.6470588 19,17" id="Path-19" stroke="#333333" stroke-width="2"></path>
                <path d="M40,4 C44.1326906,2.32240664 47.1326906,1.32240664 49,1 C55.7816491,-0.170908654 60.6421342,0.592640274 62,1" id="Path-20" stroke="#333333" stroke-width="2"></path>
                <path d="M57.6872247,0.475435816 L58.4008811,15.1265986 L59.8281938,15.1265986 L62.8017621,10.4754358 L66.0132159,15.4754358 L67.9162996,15.4754358 L68.2731278,4.19636605 C67.876652,3.42117225 66.6079295,2.60721876 64.4669604,1.75450558 C62.3259912,0.901792405 60.0660793,0.475435816 57.6872247,0.475435816 Z" id="Path-21" stroke="#333333" stroke-width="2"></path>
            </g>
        </g>
    </g>
</svg>