<?xml version="1.0" encoding="UTF-8"?>
<svg width="76px" height="91px" viewBox="0 0 76 91" version="1.1" xmlns="http://www.w3.org/2000/svg" xmlns:xlink="http://www.w3.org/1999/xlink">
    <!-- Generator: Sketch 52.4 (67378) - http://www.bohemiancoding.com/sketch -->
    <title>Group 10</title>
    <desc>Created with Sketch.</desc>
    <g id="ошибка" stroke="none" stroke-width="1" fill="none" fill-rule="evenodd">
        <g id="Group-10" transform="translate(1.000000, 0.000000)">
            <path d="M55.8045267,77.3863636 L9.89711934,73.9772727 C6.69958848,68.0681818 5.55761317,62.3863636 6.47119342,56.9318182 C7.38477366,51.4772727 11.0390947,47.6136364 17.4341564,45.3409091 L14.6934156,34.4318182 C22.3628427,33.1457085 28.3011143,32.4638903 32.5082305,32.3863636 C36.7153466,32.3088369 43.1104084,32.7633824 51.6934156,33.75 L63.3415638,41.9318182 L69.5082305,33.75 C61.7427984,30.5681818 55.8045267,28.75 51.6934156,28.2954545 C47.5823045,27.8409091 42.3292181,27.8409091 35.9341564,28.2954545" id="Path-4" stroke="#333333" stroke-width="2.05555556"></path>
            <path d="M61.3477884,60.6818182 C59.0954568,64.9797216 57.7250864,68.4246977 57.2366773,71.0167464 C56.7482681,73.6087951 56.7482681,77.4365463 57.2366773,82.5" id="Path-5" stroke="#333333" stroke-width="2.05555556"></path>
            <path d="M6.53297355,60.6818182 C4.28064199,64.9797216 2.91027162,68.4246977 2.42186244,71.0167464 C1.93345326,73.6087951 1.93345326,77.4365463 2.42186244,82.5" id="Path-5-Copy" stroke="#333333" stroke-width="2.05555556"></path>
            <path d="M36.3148148,68.4185606 C37.3628427,66.0410354 38.9245711,64.5681818 41,64 C43.0754289,63.4318182 45.6645582,63.7683081 48.767388,65.0094697" id="Path-3" stroke="#333333" stroke-width="2.05555556"></path>
            <ellipse id="Oval-8" fill="#333333" cx="30.4907407" cy="53.5227273" rx="2.39814815" ry="2.38636364"></ellipse>
            <ellipse id="Oval-8-Copy-3" fill="#333333" cx="41.4537037" cy="51.4772727" rx="2.39814815" ry="2.38636364"></ellipse>
            <ellipse id="Oval-8-Copy" fill="#333333" cx="19.5277778" cy="23.5227273" rx="2.39814815" ry="2.38636364"></ellipse>
            <ellipse id="Oval-8-Copy-2" fill="#333333" cx="53.1018519" cy="21.4772727" rx="2.39814815" ry="2.38636364"></ellipse>
            <path d="M45.2222222,27.9082337 L52.3125538,22.5" id="Path-6" stroke="#333333" stroke-width="2.05555556"></path>
            <path d="M30.8333333,32.0454545 L20.5555556,24.5454545" id="Path-7" stroke="#333333" stroke-width="2.05555556"></path>
            <path d="M56.1851852,44.3181818 L62.3518519,48.4090909 L70.5740741,51.8181818 C72.0407967,54.8342624 72.9543769,58.0160806 73.3148148,61.3636364 C73.6752527,64.7111921 73.4468576,67.8930103 72.6296296,70.9090909 C71.6971953,72.4795934 70.3268249,73.8432298 68.5185185,75 C66.7102121,76.1567702 64.8830516,76.8385884 63.037037,77.0454545" id="Path-8" stroke="#333333" stroke-width="2.05555556"></path>
            <path d="M31.5185185,75.6818182 L33.5740741,89.3181818" id="Path-9" stroke="#333333" stroke-width="2.05555556"></path>
            <path d="M42.1388889,76.0227273 L44.537037,89.3181818" id="Path-10" stroke="#333333" stroke-width="2.05555556"></path>
            <path d="M34.9444444,89.3181818 L28.0925926,89.3181818" id="Path-11" stroke="#333333" stroke-width="2.05555556"></path>
            <path d="M45.9074074,89.3181818 L39.0555556,89.3181818" id="Path-11-Copy" stroke="#333333" stroke-width="2.05555556"></path>
            <ellipse id="Path" fill-opacity="0.412647192" fill="#731982" cx="32.5462963" cy="9.20454545" rx="9.25" ry="9.20454545"></ellipse>
            <path d="M34.6018519,19.4222344 C30.0700404,19.4222344 26.3942639,15.7645207 26.3942639,11.25 C26.3942639,6.7354793 30.0700404,3.07776561 34.6018519,3.07776561 C39.1336633,3.07776561 42.8094398,6.7354793 42.8094398,11.25 C42.8094398,15.7645207 39.1336633,19.4222344 34.6018519,19.4222344 Z" id="Combined-Shape" stroke="#333333" stroke-width="2.02628697" fill-rule="nonzero"></path>
            <path d="M34.0061728,12.5186289 L34.0061728,12.0938897 C34.0061728,11.2108793 34.6604938,10.6631893 35.2530864,10.1378539 C35.7098765,9.7242921 36.117284,9.35543964 36.117284,8.87481371 C36.117284,8.304769 35.7716049,7.93591654 35.0185185,7.93591654 C34.2530864,7.93591654 33.7222222,8.42771982 33.6358025,9.19895678 L32.2037037,9.19895678 C32.2901235,7.73472429 33.4382716,6.81818182 35.0925926,6.81818182 C36.8580247,6.81818182 37.6851852,7.6900149 37.6851852,8.77421759 C37.6851852,9.56780924 37.154321,10.0819672 36.5987654,10.5737705 C36.0185185,11.0767511 35.4259259,11.5350224 35.3888889,12.1609538 L35.3888889,12.5186289 L34.0061728,12.5186289 Z M34.6851852,15 C34.1296296,15 33.6728395,14.6199702 33.6728395,14.1393443 C33.6728395,13.647541 34.1296296,13.2675112 34.6851852,13.2675112 C35.2283951,13.2675112 35.6728395,13.647541 35.6728395,14.1393443 C35.6728395,14.6199702 35.2283951,15 34.6851852,15 Z" id="?" fill="#333333"></path>
            <ellipse id="Oval-9" stroke="#333333" stroke-width="2.05555556" fill="#FFFFFF" transform="translate(59.779951, 44.636549) rotate(-14.000000) translate(-59.779951, -44.636549) " cx="59.7799514" cy="44.6365493" rx="3.86677541" ry="4.9902849"></ellipse>
            <path d="M54.8148148,83.8636364 L59.6111111,81.1363636" id="Path-12" stroke="#333333" stroke-width="2.05555556"></path>
            <path d="M0,83.8636364 L4.7962963,81.1363636" id="Path-12-Copy" stroke="#333333" stroke-width="2.05555556"></path>
        </g>
    </g>
</svg>