<?xml version="1.0" encoding="UTF-8"?>
<svg width="25px" height="24px" viewBox="0 0 25 24" version="1.1" xmlns="http://www.w3.org/2000/svg" xmlns:xlink="http://www.w3.org/1999/xlink">
    <!-- Generator: Sketch 52.4 (67378) - http://www.bohemiancoding.com/sketch -->
    <title>icon like</title>
    <desc>Created with Sketch.</desc>
    <defs>
        <path d="M6,24 L0,24 L0,9 L6.31116673,9 L9.937,1.659 C10.443,0.636 11.45,0 12.565,0 C13.435,0 14.253,0.389 14.812,1.067 C15.389,1.766 15.62,2.681 15.446,3.577 L14.15,9 L20.794,9 C21.861,9 22.831,9.496 23.455,10.361 C24.072,11.218 24.24,12.281 23.917,13.284 L21.971,20.598 C21.413,22.605 19.61,24 17.582,24 L6,24 Z M6,22 L6,11 L2,11 L2,22 L6,22 Z M8,22 L17.582,22 C18.715,22 19.726,21.208 20.04,20.074 L22.009,12.685 C22.141,12.289 22.076,11.869 21.833,11.531 C21.59,11.194 21.211,11 20.794,11 L12.662,11 L11.918,9.737 L13.492,3.154 C13.543,2.888 13.465,2.576 13.27,2.339 C13.165,2.213 12.935,2 12.565,2 C12.217,2 11.896,2.209 11.729,2.546 L8,10.097 L8,22 Z" id="path-1"></path>
    </defs>
    <g id="Page-1" stroke="none" stroke-width="1" fill="none" fill-rule="evenodd">
        <g id="icon-like" transform="translate(-4.000000, -4.000000)">
            <g id="Icons/24/Like_24" transform="translate(4.000000, 4.000000)">
                <mask id="mask-2" fill="white">
                    <use xlink:href="#path-1"></use>
                </mask>
                <use id="Combined-Shape" fill="#000000" xlink:href="#path-1"></use>
                <g id="Colors/Basic/Fresh-Asphalt" mask="url(#mask-2)" fill="#333333">
                    <g transform="translate(-10.000000, -10.000000)" id="⛔️-Layer-style">
                        <rect x="0" y="0" width="44" height="44"></rect>
                    </g>
                </g>
            </g>
            <rect id="Rectangle" fill-rule="nonzero" x="0" y="0" width="32" height="32"></rect>
        </g>
    </g>
</svg>