<?xml version="1.0" encoding="UTF-8"?>
<svg width="200px" height="114px" viewBox="0 0 200 114" version="1.1" xmlns="http://www.w3.org/2000/svg" xmlns:xlink="http://www.w3.org/1999/xlink">
    <!-- Generator: Sketch 55 (78076) - https://sketchapp.com -->
    <title>Driver_pic</title>
    <desc>Created with Sketch.</desc>
    <g id="Page-1" stroke="none" stroke-width="1" fill="none" fill-rule="evenodd">
        <g id="Driver_pic">
            <circle id="Oval-8" fill="#00B956" cx="117" cy="91" r="19"></circle>
            <circle id="Oval-8-Copy" fill="#00B956" cx="40" cy="90" r="19"></circle>
            <path d="M195.218367,34.6347246 C193.010574,34.5576268 191.283304,32.7053566 191.360402,30.4975633 C191.4375,28.2897701 193.28977,26.5625001 195.497563,26.639598 C197.705357,26.7166958 199.432626,28.568966 199.355529,30.7767593 C199.278431,32.9845525 197.426161,34.7118224 195.218367,34.6347246 Z M195.429592,31.5336812 C195.98154,31.5529556 196.444608,31.1211381 196.463882,30.5691898 C196.483157,30.0172415 196.051339,29.554174 195.499391,29.5348995 C194.947443,29.515625 194.484375,29.9474425 194.465101,30.4993908 C194.445826,31.0513391 194.877644,31.5144067 195.429592,31.5336812 Z M190.415495,53.5371633 L192.899946,51.2203756 L194.945941,53.4144367 L192.461491,55.7312244 L194.778278,58.215675 L192.584217,60.2616701 L190.267429,57.7772195 L187.782979,60.0940071 L185.736984,57.899946 L188.221434,55.5831584 L185.904647,53.0987077 L188.098708,51.0527127 L190.415495,53.5371633 L190.415495,53.5371633 Z M180.932138,15.0202732 L182.919698,13.166843 L184.965693,15.3609041 L182.978133,17.2143343 L184.831563,19.2018948 L182.637502,21.2478898 L180.784072,19.2603293 L178.796511,21.1137595 L176.750516,18.9196984 L178.738077,17.0662682 L176.884647,15.0787077 L179.078708,13.0327127 L180.932138,15.0202732 Z M174.859184,40.0673623 C173.755287,40.0288134 172.891652,39.1026783 172.930201,37.9987817 C172.96875,36.894885 173.894885,36.0312501 174.998782,36.069799 C176.102678,36.1083479 176.966313,37.034483 176.927764,38.1383796 C176.889215,39.2422763 175.96308,40.1059112 174.859184,40.0673623 Z M153.794861,25.4951266 L156.093318,17.5705141 L161.165224,17.747629 L162.562644,25.8013043 L153.794861,25.4951266 Z M157.856144,22.4987817 L159.082269,22.5415989 L158.732914,20.5281801 L158.430758,20.5176285 L157.856144,22.4987817 Z M95.4103527,45.4909095 C106.449319,45.8763987 115.71067,37.2400491 116.096159,26.2010829 C116.481648,15.1621166 107.845299,5.90076561 96.8063326,5.51527641 C85.7673663,5.12978721 76.5060153,13.7661368 76.1205261,24.805103 C75.7350369,35.8440693 84.3713864,45.1054203 95.4103527,45.4909095 Z M95.2358552,50.4878636 C81.4371474,50.0060021 70.6417105,38.4293134 71.123572,24.6306055 C71.6054335,10.8318977 83.1821222,0.0364607805 96.9808301,0.518322276 C110.779538,1.00018377 121.574975,12.5768725 121.093113,26.3755804 C120.611252,40.1742882 109.034563,50.9697251 95.2358552,50.4878636 Z M88.2410037,25.9986415 L87.5998412,29.6348547 L74.8769939,27.3914735 L75.5181564,23.7552603 L73.7006068,23.4347772 L74.9829319,16.1623507 L91.3408783,19.046698 L90.0585533,26.3191245 L88.2410037,25.9986415 Z M79.4738369,22.5781197 L78.8326744,26.2143329 L82.4677736,26.855299 L83.1089361,23.2190858 L79.4738369,22.5781197 Z M76.4799002,18.3009404 L75.8387377,21.9371536 L79.4738369,22.5781197 L80.1149994,18.9419065 L76.4799002,18.3009404 Z M73.8065447,12.2056545 L113.792636,19.2562812 L112.830892,24.7106011 L72.844801,17.6599743 L73.8065447,12.2056545 Z M108.234049,29.5239549 L107.592887,33.1601681 L94.8700396,30.9167869 L95.5112021,27.2805736 L93.6936525,26.9600906 L94.9759775,19.6876641 L111.333924,22.5720114 L110.051599,29.8444379 L108.234049,29.5239549 L108.234049,29.5239549 Z M96.4729458,21.8262538 L95.8317833,25.462467 L99.4668825,26.1034331 L100.108045,22.4672198 L96.4729458,21.8262538 Z M99.4668825,26.1034331 L98.82572,29.7396463 L102.460819,30.3806124 L103.101982,26.7443991 L99.4668825,26.1034331 Z M110.556535,41.0167781 L119.614504,53.8407087 L115.530533,56.7253537 L106.472564,43.9014232 L110.556535,41.0167781 Z M114.663688,108.202262 C123.770835,108.52029 131.411449,101.395302 131.729478,92.2881546 C132.047507,83.1810075 124.922518,75.5403929 115.815371,75.2223643 C106.708224,74.9043357 99.0676093,82.0293241 98.7495807,91.1364713 C98.4315522,100.243618 105.556541,107.884233 114.663688,108.202262 Z M114.48919,113.199216 C102.622301,112.784815 93.3382257,102.828863 93.7526266,90.9619738 C94.1670275,79.095085 104.12298,69.8110093 115.989869,70.2254102 C127.856757,70.6398111 137.140833,80.5957634 136.726432,92.4626521 C136.312031,104.329541 126.356079,113.613617 114.48919,113.199216 Z M37.710594,107.515 C46.8177412,107.833029 54.4583558,100.708041 54.7763844,91.6008934 C55.0944129,82.4937462 47.9694246,74.8531316 38.8622774,74.5351031 C29.7551302,74.2170745 22.1145156,81.3420629 21.7964871,90.44921 C21.4784585,99.5563572 28.6034469,107.196972 37.710594,107.515 Z M37.5360965,112.511954 C25.6692078,112.097554 16.385132,102.141601 16.7995329,90.2747125 C17.2139338,78.4078238 27.1698862,69.123748 39.0367749,69.5381489 C50.9036636,69.9525498 60.1877394,79.9085022 59.7733385,91.7753909 C59.3589376,103.64228 49.4029853,112.926355 37.5360965,112.511954 Z M115.047582,97.2089625 C118.083298,97.314972 120.630169,94.9399759 120.736179,91.9042602 C120.842188,88.8685445 118.467192,86.3216729 115.431477,86.2156634 C112.395761,86.1096539 109.848889,88.48465 109.74288,91.5203657 C109.63687,94.5560814 112.011866,97.102953 115.047582,97.2089625 Z M114.873085,102.205917 C109.077627,102.003535 104.543544,97.1413255 104.745926,91.3458682 C104.948308,85.550411 109.810517,81.0163274 115.605974,81.2187093 C121.401431,81.4210911 125.935515,86.2833004 125.733133,92.0787577 C125.530751,97.874215 120.668542,102.408298 114.873085,102.205917 Z M38.0944885,96.5217013 C41.1302042,96.6277108 43.6770757,94.2527147 43.7830853,91.2169989 C43.8890948,88.1812832 41.5140987,85.6344117 38.4783829,85.5284022 C35.4426672,85.4223926 32.8957957,87.7973888 32.7897862,90.8331045 C32.6837766,93.8688202 35.0587728,96.4156917 38.0944885,96.5217013 Z M91.4091603,57.3896906 L89.7166462,89.6847838 L97.112833,89.9430643 L96.9383355,94.9400184 L57.9620932,93.5789381 L58.1365907,88.5819839 L84.7189309,89.5102597 L86.411445,57.2151665 L46.7783148,55.8311471 L64.1341788,35.7452922 C59.4795668,35.1458937 55.6077411,36.3698006 52.3405741,39.3979757 L35.2885448,55.202656 L34.5930484,55.3399026 C23.7784962,57.474005 16.1899095,61.8286705 11.6799563,68.3591206 C7.56859764,74.3124025 5.46012623,80.391668 5.31439417,86.6459994 L21.9119701,87.2255995 L21.7374726,92.2225537 L0.474715823,91.4800418 L0.354827662,89.1923484 C-0.0750976995,80.9885572 2.34740173,73.0739763 7.56571713,65.5178117 C12.7803176,57.9670265 21.2794849,53.0006717 32.9243642,50.5765454 L48.9417091,35.7308629 C54.4495128,30.6259527 61.4201948,29.3396404 69.4924002,31.833306 L73.1469669,32.9622746 L66.4757015,40.6828968 C68.3077434,41.1463537 69.8940087,41.957309 71.2132496,43.1305542 C73.3995049,45.0748645 74.830039,47.9966442 75.5850808,51.8340538 L153.017953,54.8174355 L152.843456,59.8143896 L91.4091603,57.3896906 Z M70.420519,51.6537034 C69.8459001,49.4238166 68.9859402,47.8409853 67.8905023,46.8667757 C66.6974515,45.8057555 64.9512333,45.2337569 62.5595681,45.2150185 L57.3892168,51.1986403 L70.420519,51.6537034 L70.420519,51.6537034 Z M37.919991,101.518655 C32.1245337,101.316274 27.5904502,96.4540643 27.792832,90.658607 C27.9952139,84.8631497 32.8574231,80.3290662 38.6528804,80.531448 C44.4483377,80.7338299 48.9824212,85.5960391 48.7800394,91.3914964 C48.5776576,97.1869537 43.7154483,101.721037 37.919991,101.518655 Z" id="Combined-Shape" fill="#333333" fill-rule="nonzero"></path>
        </g>
    </g>
</svg>